<?xml version="1.0" encoding="UTF-8" standalone="no"?><!DOCTYPE svg PUBLIC "-//W3C//DTD SVG 1.1//EN" "http://www.w3.org/Graphics/SVG/1.1/DTD/svg11.dtd"><svg width="100%" height="100%" viewBox="0 0 2830 1153" version="1.1" xmlns="http://www.w3.org/2000/svg" xmlns:xlink="http://www.w3.org/1999/xlink" xml:space="preserve" xmlns:serif="http://www.serif.com/" style="fill-rule:evenodd;clip-rule:evenodd;stroke-linecap:round;stroke-linejoin:round;stroke-miterlimit:1.5;"><g id="logo-center"><g id="text"><path id="s" d="M188.856,858.46c-18.666,-7.686 -40.077,-11.529 -63.684,-11.529c-19.764,0 -37.881,3.294 -54.9,9.333c-17.568,6.588 -31.293,15.921 -41.724,27.999c-10.98,12.627 -15.921,27.999 -15.921,45.567c0,44.469 35.136,73.566 105.408,86.742c26.901,5.49 46.116,11.529 57.645,19.215c10.98,7.686 17.019,17.019 17.019,27.999c0,12.078 -6.039,21.411 -17.568,27.999c-11.529,7.137 -27.45,10.431 -48.312,10.431c-15.921,0 -30.744,-2.745 -44.469,-8.235c-14.274,-5.49 -24.705,-12.627 -31.293,-20.313c-6.588,-6.588 -13.725,-9.882 -20.862,-9.882c-6.039,0 -12.627,2.745 -19.215,7.686c-7.686,5.49 -10.98,12.627 -10.98,21.411c0,6.588 2.196,12.627 7.137,17.019c12.078,12.627 29.646,22.509 51.606,30.195c21.96,7.686 45.018,11.529 70.272,11.529c24.705,0 46.116,-3.843 63.684,-11.529c17.568,-7.686 31.293,-18.666 40.626,-32.391c8.784,-13.725 13.725,-29.097 13.725,-46.116c0,-22.509 -8.784,-41.175 -25.254,-55.449c-16.47,-14.274 -45.018,-25.254 -84.546,-33.489c-19.764,-3.843 -34.587,-7.686 -44.469,-12.078c-10.431,-4.392 -17.568,-8.784 -20.862,-13.725c-3.843,-4.941 -5.49,-10.98 -5.49,-18.666c0,-9.882 4.941,-18.117 15.921,-23.607c10.98,-5.49 24.705,-8.784 41.724,-8.784c14.274,0 26.901,2.196 37.332,5.49c9.882,3.294 19.764,9.333 29.097,17.568c7.686,7.137 15.921,10.431 25.803,10.431c6.039,0 10.98,-1.098 15.372,-4.392c6.039,-4.941 9.333,-10.431 9.333,-17.019c-0,-5.49 -2.745,-11.529 -7.137,-17.568c-10.98,-13.176 -26.352,-24.156 -45.018,-31.842Z" style="fill:#003459;fill-rule:nonzero;"/><path id="c" d="M612.24,896.341c-28.548,-32.94 -64.782,-49.41 -107.604,-49.41c-28.548,0 -54.351,6.588 -76.86,19.764c-23.058,13.176 -40.626,31.293 -53.253,54.351c-12.627,23.058 -18.666,49.41 -18.666,78.507c0,28.548 6.039,54.9 19.215,77.958c13.176,23.058 31.293,41.175 54.351,54.351c23.058,13.176 48.861,19.764 77.958,19.764c39.528,0 72.468,-12.078 98.82,-36.783c4.392,-4.392 6.588,-9.333 6.588,-14.823c0,-7.137 -3.843,-13.725 -10.431,-19.764c-4.392,-3.294 -9.333,-4.941 -14.274,-4.941c-6.588,0 -13.725,2.745 -20.313,7.686c-15.372,13.176 -35.685,19.215 -60.39,19.215c-19.215,0 -36.234,-4.392 -51.057,-13.176c-14.823,-8.784 -26.352,-20.862 -34.587,-36.234c-8.235,-15.372 -12.078,-33.489 -12.078,-53.253c0,-30.744 8.784,-55.998 26.352,-74.664c17.568,-18.666 40.077,-28.548 68.625,-28.548c13.725,0 25.803,2.745 36.783,7.137c10.98,4.392 20.862,11.529 30.195,21.411c5.49,6.588 12.627,9.882 21.411,9.882c4.392,-0 8.784,-1.098 12.627,-3.843c7.686,-5.49 12.078,-12.078 12.078,-20.313c0,-5.49 -2.196,-9.882 -5.49,-14.274Z" style="fill:#0076ab;fill-rule:nonzero;"/><path id="r" d="M947.561,854.617c-10.98,-5.49 -26.352,-8.784 -45.567,-8.784c-18.666,0 -35.685,3.843 -51.606,10.98c-16.47,7.686 -29.646,17.568 -40.626,30.195l0,-10.431c0,-18.117 -9.333,-27.45 -27.45,-27.45c-8.784,0 -15.921,2.745 -20.313,7.137c-4.941,4.941 -7.137,11.529 -7.137,20.313l0,245.403c0,9.333 2.196,16.47 7.137,20.862c4.392,4.392 11.529,6.588 20.313,6.588c8.784,0 15.921,-2.196 20.313,-7.137c4.392,-4.392 7.137,-11.529 7.137,-20.313l0,-160.308c0,-20.313 7.686,-36.783 24.156,-48.861c15.921,-12.078 37.332,-18.117 63.684,-18.117c8.784,0 20.862,1.647 35.685,3.843c3.294,1.098 6.039,1.098 8.235,1.098c10.98,0 18.666,-5.49 21.96,-17.568c0,-1.098 0.549,-2.745 0.549,-5.49c0,-8.784 -5.49,-15.921 -16.47,-21.96Z" style="fill:#00a2df;fill-rule:nonzero;"/><path id="e" d="M1316.21,1012.18c4.392,-4.392 7.137,-10.431 7.137,-17.568c0,-28.548 -5.49,-54.351 -16.47,-76.86c-10.98,-21.96 -26.901,-39.528 -47.214,-52.155c-20.862,-12.078 -45.018,-18.666 -73.017,-18.666c-28.548,-0 -54.351,6.588 -76.86,19.764c-22.509,13.176 -40.077,31.293 -52.704,54.351c-12.627,23.058 -18.666,49.41 -18.666,78.507c0,29.646 6.588,55.449 19.764,78.507c13.176,23.058 31.842,41.175 55.998,54.351c23.607,13.176 50.508,19.215 80.703,19.215c16.47,0 34.038,-2.745 52.704,-9.333c18.666,-6.039 34.038,-14.274 46.665,-24.156c5.49,-4.392 8.784,-9.882 8.784,-16.47c0,-6.588 -3.294,-13.176 -9.882,-18.666c-4.392,-3.294 -9.882,-5.49 -16.47,-5.49c-7.137,0 -13.176,2.196 -18.117,6.039c-7.686,6.039 -17.568,10.98 -29.646,14.823c-12.078,4.392 -23.058,6.039 -34.038,6.039c-27.999,0 -51.606,-7.686 -70.821,-23.607c-19.215,-15.372 -30.744,-36.234 -34.587,-62.037l208.62,0c7.137,0 13.176,-2.196 18.117,-6.588Zm-194.895,-96.075c16.47,-14.274 38.43,-21.96 65.331,-21.96c24.156,-0 43.371,7.686 58.743,21.96c14.823,14.823 24.156,34.587 27.45,58.743l-182.817,-0c4.392,-24.156 14.823,-43.92 31.293,-58.743Z" style="fill:#008aba;fill-rule:nonzero;"/><path id="n" d="M1712.76,911.164c-11.529,-20.862 -27.45,-37.332 -47.214,-48.312c-19.215,-9.882 -40.077,-15.372 -63.135,-15.921c-0.549,0 -1.647,-0.549 -1.647,-0.549l-126.27,0c-7.686,0 -13.725,2.745 -18.666,7.686c-5.49,5.49 -7.686,11.529 -7.686,18.666l0,249.246c0,8.235 2.196,14.823 7.686,20.313c5.49,5.49 12.078,7.686 20.313,7.686c8.235,0 14.823,-2.196 20.313,-7.686c4.941,-5.49 7.686,-12.078 7.686,-20.313l0,-154.818c0,-13.176 3.294,-24.705 10.431,-35.685c7.137,-10.431 17.019,-18.666 29.646,-25.254c12.627,-6.039 26.901,-9.333 42.273,-9.333c26.352,0 47.214,7.686 63.135,23.058c15.921,15.372 24.156,37.881 24.156,66.978l0,135.054c0,8.235 2.196,14.823 7.686,20.313c5.49,5.49 12.078,7.686 20.313,7.686c7.686,0 14.274,-2.196 19.764,-7.686c5.49,-5.49 8.235,-12.078 8.235,-20.313l0,-135.054c0,-29.646 -6.039,-54.9 -17.019,-75.762Z" style="fill:#008aba;fill-rule:nonzero;"/><path id="a" d="M2162.86,999.553c0,-27.999 -7.137,-54.351 -20.313,-77.409c-13.176,-23.058 -31.293,-41.724 -54.351,-54.9c-23.058,-13.176 -48.312,-20.313 -76.311,-20.313c-28.548,0 -54.351,7.137 -77.409,20.313c-23.058,13.176 -41.175,31.842 -54.351,54.9c-13.176,23.058 -19.764,48.861 -19.764,77.409c0,28.548 6.039,54.9 18.117,77.958c12.078,23.058 29.097,41.175 50.508,54.351c21.96,13.725 45.567,20.313 71.919,20.313l135.603,0c7.137,0 13.176,-2.745 18.666,-7.686c4.941,-4.941 7.686,-10.98 7.686,-18.666l0,-126.27Zm-236.07,52.704c-8.784,-15.372 -12.627,-32.94 -12.627,-52.704c-0,-19.215 3.843,-36.783 12.627,-52.704c8.784,-15.372 20.313,-27.999 35.136,-36.783c14.823,-8.784 31.293,-13.725 49.959,-13.725c18.117,-0 34.587,4.941 49.41,13.725c14.823,8.784 26.352,21.411 35.136,36.783c8.235,15.921 12.627,33.489 12.627,52.704c-0,19.764 -4.392,37.332 -12.627,52.704c-8.784,15.372 -20.313,27.999 -35.136,36.783c-14.823,8.784 -31.293,13.176 -49.41,13.176c-18.666,-0 -35.136,-4.392 -49.959,-13.176c-14.823,-8.784 -26.352,-21.411 -35.136,-36.783Z" style="fill:#00a2df;fill-rule:nonzero;"/><path id="r1" serif:id="r" d="M2492.82,854.617c-10.98,-5.49 -26.352,-8.784 -45.567,-8.784c-18.666,0 -35.685,3.843 -51.606,10.98c-16.47,7.686 -29.646,17.568 -40.626,30.195l0,-10.431c0,-18.117 -9.333,-27.45 -27.45,-27.45c-8.784,0 -15.921,2.745 -20.313,7.137c-4.941,4.941 -7.137,11.529 -7.137,20.313l0,245.403c0,9.333 2.196,16.47 7.137,20.862c4.392,4.392 11.529,6.588 20.313,6.588c8.784,0 15.921,-2.196 20.313,-7.137c4.392,-4.392 7.137,-11.529 7.137,-20.313l0,-160.308c0,-20.313 7.686,-36.783 24.156,-48.861c15.921,-12.078 37.332,-18.117 63.684,-18.117c8.784,0 20.862,1.647 35.685,3.843c3.294,1.098 6.039,1.098 8.235,1.098c10.98,0 18.666,-5.49 21.96,-17.568c0,-1.098 0.549,-2.745 0.549,-5.49c0,-8.784 -5.49,-15.921 -16.47,-21.96Z" style="fill:#0076ab;fill-rule:nonzero;"/><path id="r2" d="M2813.18,854.617c-10.98,-5.49 -26.352,-8.784 -45.567,-8.784c-18.666,0 -35.685,3.843 -51.606,10.98c-16.47,7.686 -29.646,17.568 -40.626,30.195l0,-10.431c0,-18.117 -9.333,-27.45 -27.45,-27.45c-8.784,0 -15.921,2.745 -20.313,7.137c-4.941,4.941 -7.137,11.529 -7.137,20.313l0,245.403c0,9.333 2.196,16.47 7.137,20.862c4.392,4.392 11.529,6.588 20.313,6.588c8.784,0 15.921,-2.196 20.313,-7.137c4.392,-4.392 7.137,-11.529 7.137,-20.313l0,-160.308c0,-20.313 7.686,-36.783 24.156,-48.861c15.921,-12.078 37.332,-18.117 63.684,-18.117c8.784,0 20.862,1.647 35.685,3.843c3.294,1.098 6.039,1.098 8.235,1.098c10.98,0 18.666,-5.49 21.96,-17.568c0,-1.098 0.549,-2.745 0.549,-5.49c0,-8.784 -5.49,-15.921 -16.47,-21.96Z" style="fill:#003459;fill-rule:nonzero;"/></g><g id="icon"><path id="outer" d="M1415,31c-154.64,0 -280,125.36 -280,280c0,154.536 125.464,280 280,280c154.64,0 280,-125.36 280,-280c0,154.64 -125.36,280 -280,280c-154.536,0 -280,-125.464 -280,-280c0,-154.64 125.36,-280 280,-280Z" style="fill:none;stroke:#007ea7;stroke-width:64px;"/><path id="inner" d="M1415,154c-86.709,0 -157,70.291 -157,157c0,86.651 70.349,157 157,157c86.709,-0 157,-70.291 157,-157c-0,86.709 -70.291,157 -157,157c-86.651,-0 -157,-70.349 -157,-157c0,-86.709 70.291,-157 157,-157Z" style="fill:none;stroke:#007ea7;stroke-width:64px;"/><g><rect x="1415" y="311" width="280" height="0" style="fill:#007ea7;"/><circle cx="1415" cy="311" r="62.4" style="fill:#007ea7;"/><path d="M1415,311l280,0l-280,0Z" style="fill:none;stroke:#007ea7;stroke-width:64px;"/></g></g></g></svg>